<?xml version="1.0" encoding="UTF-8" standalone="no"?>
<svg width="40px" height="51px" viewBox="0 0 40 51" version="1.1" xmlns="http://www.w3.org/2000/svg" xmlns:xlink="http://www.w3.org/1999/xlink">
    <!-- Generator: Sketch 39 (31667) - http://www.bohemiancoding.com/sketch -->
    <title>available spots copy 10</title>
    <desc>Created with Sketch.</desc>
    <defs>
        <ellipse id="path-1" cx="19.7368421" cy="19.7368421" rx="19.7368421" ry="19.7368421"></ellipse>
        <mask id="mask-2" maskContentUnits="userSpaceOnUse" maskUnits="objectBoundingBox" x="0" y="0" width="39.4736842" height="39.4736842" fill="white">
            <use xlink:href="#path-1"></use>
        </mask>
    </defs>
    <g id="Mobile" stroke="none" stroke-width="1" fill="none" fill-rule="evenodd">
        <g id="available-spots-copy-10">
            <g id="P_green-Copy-10">
                <use id="Oval-5" stroke="#86A2E1" mask="url(#mask-2)" stroke-width="6" fill="#1950CE" opacity="0.5" xlink:href="#path-1"></use>
                <path d="M19.7368421,29.2105263 C24.9690134,29.2105263 29.2105263,24.9690134 29.2105263,19.7368421 C29.2105263,14.5046708 24.9690134,10.2631579 19.7368421,10.2631579 C14.5046708,10.2631579 10.2631579,14.5046708 10.2631579,19.7368421 C10.2631579,24.9690134 14.5046708,29.2105263 19.7368421,29.2105263 Z" id="Oval-5" stroke="#1950CE" stroke-width="4" fill="#1970CE"></path>
            </g>
            <path d="M20.0657895,23.6842105 L20.0657895,50" id="Line" stroke="#1970CE" stroke-linecap="square"></path>
            <g id="disabled" transform="translate(16.000000, 13.000000)" fill="#FFFFFF">
                <g id="Capa_1">
                    <g id="XMLID_28_">
                        <path d="M4.03224874,2.16787195 C4.63710302,2.16787195 5.12850754,1.6825752 5.12850754,1.08394715 C5.12850754,0.485140244 4.63710302,0 4.03224874,0 C3.42669347,0 2.93569598,0.485140244 2.93569598,1.08394715 C2.93569598,1.6825752 3.42669347,2.16787195 4.03224874,2.16787195 L4.03224874,2.16787195 Z" id="XMLID_31_"></path>
                        <path d="M5.72637437,8.31009756 C5.43505025,9.31020325 4.50253266,10.0446768 3.39844975,10.0446768 C2.06142965,10.0446768 0.974125628,8.96960569 0.974125628,7.64808537 C0.974125628,6.66984553 1.5710201,5.82787602 2.42285427,5.45582114 L2.42285427,4.43979675 C1.02785427,4.85522561 0.00859296482,6.13556301 0.00859296482,7.64808537 C0.00859296482,9.49592886 1.52925377,10.9994411 3.39842714,10.9994411 C4.76059296,10.9994411 5.93468593,10.1990122 6.47303518,9.05054065 L6.09028643,8.30703455 C5.98285176,8.3079065 5.85838945,8.30902439 5.72637437,8.31009756 L5.72637437,8.31009756 Z" id="XMLID_30_"></path>
                        <path d="M8.92040201,9.5967622 L7.45193216,6.74230691 C7.34232663,6.52872358 7.12076382,6.39428659 6.87839698,6.39428659 L4.9976005,6.39428659 L4.9976005,5.97025 L6.61628894,5.97025 C6.77792714,5.97025 6.91378643,5.88672154 7.00154774,5.76639228 C7.05857789,5.6880061 7.09914573,5.59694309 7.09914573,5.49282317 C7.09914573,5.22924797 6.88321357,5.01546341 6.61628894,5.01546341 L5.6411005,5.01546341 L4.9976005,5.01546341 L4.9976005,3.57723577 C4.9976005,3.18168293 4.70096231,2.62247154 4.03227136,2.62247154 C3.49896482,2.62247154 3.06662563,3.04999593 3.06662563,3.57723577 L3.06662563,6.69327642 C3.06662563,7.23115854 3.50764824,7.66720122 4.05169598,7.66720122 L5.82150754,7.66720122 L6.48370854,7.66720122 L7.77319598,10.1738821 C7.88651005,10.3946646 8.1126407,10.5220589 8.3473191,10.5220589 C8.44568593,10.5220589 8.54543216,10.4998354 8.63864322,10.4526606 C8.95599497,10.2935183 9.0820402,9.91008333 8.92040201,9.5967622 L8.92040201,9.5967622 Z" id="XMLID_29_"></path>
                    </g>
                </g>
            </g>
        </g>
    </g>
</svg>