<?xml version="1.0" encoding="UTF-8" standalone="no"?>
<svg width="60px" height="77px" viewBox="0 0 60 77" version="1.1" xmlns="http://www.w3.org/2000/svg" xmlns:xlink="http://www.w3.org/1999/xlink">
    <!-- Generator: Sketch 39 (31667) - http://www.bohemiancoding.com/sketch -->
    <title>available spots copy 10</title>
    <desc>Created with Sketch.</desc>
    <defs>
        <circle id="path-1" cx="30" cy="30" r="30"></circle>
        <mask id="mask-2" maskContentUnits="userSpaceOnUse" maskUnits="objectBoundingBox" x="0" y="0" width="60" height="60" fill="white">
            <use xlink:href="#path-1"></use>
        </mask>
    </defs>
    <g id="Mobile" stroke="none" stroke-width="1" fill="none" fill-rule="evenodd">
        <g id="Artboard-3-Copy-8" transform="translate(-804.000000, -206.000000)">
            <g id="available-spots" transform="translate(804.000000, 206.000000)">
                <g>
                    <g id="P_green-Copy-2">
                        <use id="Oval-5" stroke-opacity="0.5" stroke="#0BAC3C" mask="url(#mask-2)" stroke-width="6" fill-opacity="0.5" fill="#19CE50" opacity="0.5" xlink:href="#path-1"></use>
                        <path d="M30,44.4 C37.9529004,44.4 44.4,37.9529004 44.4,30 C44.4,22.0470996 37.9529004,15.6 30,15.6 C22.0470996,15.6 15.6,22.0470996 15.6,30 C15.6,37.9529004 22.0470996,44.4 30,44.4 Z" id="Oval-5" stroke="#0BAC3C" stroke-width="4" fill="#19CE50"></path>
                        <path d="M26.064,23.872 L30.747516,23.872 C31.4428314,23.872 32.0954997,23.9408745 32.7055405,24.0786257 C33.3155814,24.2163769 33.8468993,24.4459587 34.2995103,24.7673781 C34.7521212,25.0887974 35.1096129,25.5151637 35.3719961,26.0464896 C35.6343792,26.5778155 35.7655689,27.2304838 35.7655689,28.0045141 C35.7655689,28.7523061 35.6310995,29.4016947 35.3621568,29.9526993 C35.093214,30.503704 34.7291628,30.9563081 34.2699923,31.3105254 C33.8108218,31.6647427 33.2795039,31.9271219 32.6760226,32.097671 C32.0725413,32.26822 31.4297122,32.3534933 30.747516,32.3534933 L28.9764385,32.3534933 L28.9764385,36.7024724 L26.064,36.7024724 L26.064,23.872 Z M30.5704083,30.0510925 C32.1447072,30.0510925 32.9318449,29.3689066 32.9318449,28.0045141 C32.9318449,27.3354371 32.7317807,26.8631545 32.3316464,26.5876521 C31.9315121,26.3121498 31.3444386,26.1744007 30.5704083,26.1744007 L28.9764385,26.1744007 L28.9764385,30.0510925 L30.5704083,30.0510925 Z" id="P" fill="#FFFFFF"></path>
                    </g>
                    <path d="M30.5,36 L30.5,76" id="Line" stroke="#19CE50" stroke-linecap="square"></path>
                </g>
            </g>
        </g>
    </g>
</svg>