<?xml version="1.0" encoding="UTF-8" standalone="no"?>
<svg width="40px" height="51px" viewBox="0 0 40 51" version="1.1" xmlns="http://www.w3.org/2000/svg" xmlns:xlink="http://www.w3.org/1999/xlink">
    <!-- Generator: Sketch 39 (31667) - http://www.bohemiancoding.com/sketch -->
    <title>available spots copy 22</title>
    <desc>Created with Sketch.</desc>
    <defs>
        <ellipse id="path-1" cx="19.7368421" cy="19.7368421" rx="19.7368421" ry="19.7368421"></ellipse>
        <mask id="mask-2" maskContentUnits="userSpaceOnUse" maskUnits="objectBoundingBox" x="0" y="0" width="39.4736842" height="39.4736842" fill="white">
            <use xlink:href="#path-1"></use>
        </mask>
    </defs>
    <g id="Mobile" stroke="none" stroke-width="1" fill="none" fill-rule="evenodd">
        <g id="available-spots-copy-22">
            <g id="P_green-Copy-13">
                <use id="Oval-5" stroke="#F9A4C0" mask="url(#mask-2)" stroke-width="6" fill="#F6CCDA" opacity="0.5" xlink:href="#path-1"></use>
                <path d="M19.7368421,29.2105263 C24.9690134,29.2105263 29.2105263,24.9690134 29.2105263,19.7368421 C29.2105263,14.5046708 24.9690134,10.2631579 19.7368421,10.2631579 C14.5046708,10.2631579 10.2631579,14.5046708 10.2631579,19.7368421 C10.2631579,24.9690134 14.5046708,29.2105263 19.7368421,29.2105263 Z" id="Oval-5" stroke="#EE6E98" stroke-width="4" fill="#F691B2"></path>
            </g>
            <path d="M20.0657895,23.6842105 L20.0657895,50" id="Line" stroke="#F691B2" stroke-linecap="square"></path>
            <path d="M15.648,19.536 C15.648,18.7919963 15.7679988,18.1290029 16.008,17.547 C16.2480012,16.9649971 16.568998,16.476002 16.971,16.08 C17.373002,15.683998 17.8379974,15.381001 18.366,15.171 C18.8940026,14.9609989 19.4399972,14.856 20.004,14.856 C20.5680028,14.856 21.1109974,14.9609989 21.633,15.171 C22.1550026,15.381001 22.616998,15.683998 23.019,16.08 C23.421002,16.476002 23.7419988,16.9649971 23.982,17.547 C24.2220012,18.1290029 24.342,18.7919963 24.342,19.536 C24.342,20.2800037 24.2220012,20.9429971 23.982,21.525 C23.7419988,22.1070029 23.421002,22.595998 23.019,22.992 C22.616998,23.388002 22.1550026,23.6909989 21.633,23.901 C21.1109974,24.111001 20.5680028,24.216 20.004,24.216 C19.4399972,24.216 18.8940026,24.111001 18.366,23.901 C17.8379974,23.6909989 17.373002,23.388002 16.971,22.992 C16.568998,22.595998 16.2480012,22.1070029 16.008,21.525 C15.7679988,20.9429971 15.648,20.2800037 15.648,19.536 L15.648,19.536 Z M18.366,19.536 C18.366,20.3160039 18.5009986,20.9339977 18.771,21.39 C19.0410013,21.8460023 19.4519972,22.074 20.004,22.074 C20.5440027,22.074 20.9519986,21.8460023 21.228,21.39 C21.5040014,20.9339977 21.642,20.3160039 21.642,19.536 C21.642,18.7559961 21.5040014,18.1380023 21.228,17.682 C20.9519986,17.2259977 20.5440027,16.998 20.004,16.998 C19.4519972,16.998 19.0410013,17.2259977 18.771,17.682 C18.5009986,18.1380023 18.366,18.7559961 18.366,19.536 L18.366,19.536 Z" id="o" fill="#FFFFFF"></path>
        </g>
    </g>
</svg>