<?xml version="1.0" encoding="UTF-8" standalone="no"?>
<svg width="200px" height="156px" viewBox="0 0 200 156" version="1.1" xmlns="http://www.w3.org/2000/svg" xmlns:xlink="http://www.w3.org/1999/xlink">
    <!-- Generator: Sketch 39 (31667) - http://www.bohemiancoding.com/sketch -->
    <title>Group</title>
    <desc>Created with Sketch.</desc>
    <defs></defs>
    <g id="Mobile" stroke="none" stroke-width="1" fill="none" fill-rule="evenodd">
        <g id="Open-app" transform="translate(-80.000000, -237.000000)">
            <g id="Group" transform="translate(80.000000, 237.000000)">
                <g id="SYDPARK-LOGO" fill="#FFFFFF">
                    <g id="Group-4">
                        <path d="M71.4930802,69.5178882 C71.4175349,68.9948963 71.3293196,68.3850313 71.2292453,67.6941879 C70.9433361,65.7204705 70.6197242,63.4935834 70.2648974,61.0606823 C69.2511096,54.1095551 68.1903308,46.9003349 67.1344534,39.8101981 C65.0463873,25.7889914 61.8535926,10.9511447 58.9853168,1.93656366 L57.2271483,4.03079664 C57.3330249,4.04507214 57.5550204,4.07880206 57.8853438,4.13501927 C58.4465454,4.23052925 59.1005859,4.35459789 59.8396706,4.51024639 C61.9626812,4.95734455 64.3330403,5.56705026 66.8883689,6.36333173 C74.1946417,8.6400838 81.5010583,11.9502103 88.3116695,16.4805289 C97.1565838,22.3640359 104.496952,29.8810964 109.841031,39.2332345 L110.443141,37.0254965 L107.611426,38.6436195 C107.483396,38.7167794 107.365967,38.8070964 107.262401,38.9120627 L77.3271255,69.2518685 L78.4789644,68.7702265 L69.9838188,68.7702265 L71.585403,70.15759 C71.569449,70.0468618 71.569449,70.0468618 71.4930802,69.5178882 Z M69.9838188,72.0064725 L78.4789644,72.0064725 C78.9118817,72.0064725 79.3267459,71.8329968 79.6308033,71.5248306 L109.566078,41.1850247 L109.217053,41.4534679 L112.048769,39.8353449 C112.824687,39.3919631 113.094261,38.4035251 112.650879,37.6276069 C107.043836,27.8152812 99.3499815,19.9362254 90.1040514,13.7859686 C83.0176962,9.07222921 75.4345059,5.63671206 67.8511717,3.27362323 C65.1951379,2.44596038 62.7263748,1.81094314 60.5065834,1.34346329 C59.7256873,1.17900947 59.0303572,1.04710838 58.4283082,0.944646629 C58.0606813,0.882080799 57.8018666,0.842756582 57.6595831,0.823572288 C56.4825566,0.664872091 55.5413065,1.78603709 55.9014146,2.91780527 C58.7111367,11.7483605 61.8689976,26.4238598 63.9335077,40.2868893 C64.988864,47.3735269 66.0491818,54.5796141 67.0625307,61.5277318 C67.4172019,63.9595665 67.7406645,66.1854261 68.0264286,68.1581422 C68.12644,68.8485505 68.2145933,69.4579871 68.2900775,69.9805563 C68.3663604,70.5089344 68.3663604,70.5089344 68.3822345,70.619109 C68.4969669,71.4154081 69.1792967,72.0064725 69.9838188,72.0064725 Z" id="Path-7"></path>
                        <path d="M63.9158576,90.6148867 C63.9158576,83.0187373 57.7579618,76.8608414 50.1618123,76.8608414 C42.5656628,76.8608414 36.407767,83.0187373 36.407767,90.6148867 C36.407767,91.2310304 36.4483832,91.842581 36.5288757,92.4467141 L38.1328247,92.2330097 L38.1328247,90.6148867 L11.3268608,90.6148867 L12.9295991,92.4556123 L16.9749066,63.3293987 L15.3721683,64.7249191 L44.4968017,64.7249191 L43.4083344,64.3041102 L52.3080108,72.394725 C52.6058618,72.6654987 52.993944,72.815534 53.3964781,72.815534 L160.194175,72.815534 L159.022534,72.3134667 L167.113149,80.8070322 C167.419253,81.1283816 167.84391,81.3098995 168.287716,81.3090968 L197.552865,81.2561644 L195.931914,79.6201956 L195.792979,92.2151613 L197.411003,90.6148867 L159.278179,90.6148867 L159.278179,92.2330097 L160.882128,92.4467141 C160.96262,91.842581 161.003236,91.2310304 161.003236,90.6148867 C161.003236,83.0187373 154.84534,76.8608414 147.249191,76.8608414 C139.653041,76.8608414 133.495146,83.0187373 133.495146,90.6148867 C133.495146,91.2310304 133.535762,91.842581 133.616254,92.4467141 L135.220203,92.2330097 L135.220203,90.6148867 L62.1907999,90.6148867 L62.1907999,92.2330097 L63.7947489,92.4467141 C63.8752414,91.842581 63.9158576,91.2310304 63.9158576,90.6148867 Z M62.1907999,93.8511327 L135.220203,93.8511327 C136.198765,93.8511327 136.95339,92.9892951 136.824152,92.0193053 C136.762525,91.5567636 136.731392,91.0879941 136.731392,90.6148867 C136.731392,84.8060665 141.440371,80.0970874 147.249191,80.0970874 C153.058011,80.0970874 157.76699,84.8060665 157.76699,90.6148867 C157.76699,91.0879941 157.735857,91.5567636 157.67423,92.0193053 C157.544992,92.9892951 158.299617,93.8511327 159.278179,93.8511327 L197.411003,93.8511327 C198.297705,93.8511327 199.019247,93.1375064 199.029028,92.2508582 L199.167963,79.6558925 C199.17791,78.7541586 198.448799,78.0182927 197.547012,78.0199237 L168.281863,78.0728561 L169.45643,78.5749207 L161.365815,70.0813553 C161.060413,69.7607421 160.636965,69.579288 160.194175,69.579288 L53.3964781,69.579288 L54.4849454,70.000097 L45.585269,61.9094821 C45.2874179,61.6387084 44.8993357,61.4886731 44.4968017,61.4886731 L15.3721683,61.4886731 C14.5645168,61.4886731 13.8805373,62.084221 13.76943,62.8841936 L9.72412254,92.0104072 C9.58900661,92.9832418 10.3446879,93.8511327 11.3268608,93.8511327 L38.1328247,93.8511327 C39.1113861,93.8511327 39.8660116,92.9892951 39.7367737,92.0193053 C39.6751463,91.5567636 39.6440129,91.0879941 39.6440129,90.6148867 C39.6440129,84.8060665 44.3529921,80.0970874 50.1618123,80.0970874 C55.9706325,80.0970874 60.6796117,84.8060665 60.6796117,90.6148867 C60.6796117,91.0879941 60.6484783,91.5567636 60.5868509,92.0193053 C60.457613,92.9892951 61.2122385,93.8511327 62.1907999,93.8511327 Z" id="Combined-Shape"></path>
                        <path d="M109.80387,39.5884661 C109.972105,39.7922846 110.167755,40.0315866 110.388527,40.30436 C111.021164,41.0860102 111.726878,41.9775241 112.48731,42.9627662 C114.660456,45.7783705 116.833591,48.7767789 118.859325,51.8274381 C120.673765,54.5598983 122.281711,57.2045022 123.627578,59.7101058 C125.982427,64.0941328 127.447324,67.8920149 127.84591,70.8814047 C127.953095,71.6852979 128.638831,72.2856705 129.449838,72.2856705 L136.374289,72.2856705 C137.064354,72.2856705 137.678488,71.8480455 137.903761,71.1957872 C137.938395,71.0955068 138.006212,70.8999723 138.105301,70.6155391 C138.270722,70.1407034 138.463599,69.589672 138.682023,68.9688018 C139.306368,67.1941049 140.010005,65.2162657 140.777644,63.0861621 C142.970581,57.0010332 145.2364,50.9163132 147.452313,45.2400402 C148.239143,43.2244994 149.007205,41.2931038 149.753151,39.4569167 C153.356707,30.5865656 156.306034,24.2763549 158.286254,21.4297878 C158.971268,20.4450812 158.384228,19.0834545 157.197962,18.9055146 C156.930341,18.8653715 156.449019,18.8088079 155.773648,18.7534263 C146.322559,17.9784211 135.049597,19.6852783 124.234478,25.9405095 C120.168627,28.2921101 116.379344,31.212814 112.921248,34.7460863 L111.511504,36.3502782 L112.039106,35.9529789 L110.152334,36.8410262 C109.191523,37.2932513 108.919403,38.5327376 109.602419,39.3458519 C109.636057,39.3858964 109.703971,39.4674377 109.80387,39.5884661 Z M111.530514,39.7691498 L113.417286,38.8811024 C113.618598,38.786351 113.798206,38.6511011 113.944888,38.4838032 L115.294362,36.9446661 C118.483996,33.6891666 122.039798,30.9484247 125.854761,28.7419327 C136.017053,22.8642827 146.658358,21.2530656 155.509158,21.9788461 C155.862416,22.0078139 156.170203,22.0386432 156.430007,22.0691746 C156.579752,22.0867723 156.676552,22.0997543 156.717896,22.1059559 L155.629603,19.5816827 C153.462647,22.6966816 150.452331,29.137381 146.754874,38.2388751 C146.003135,40.0893219 145.229649,42.0343589 144.437639,44.0631669 C142.210238,49.7688694 139.93491,55.8791232 137.733066,61.988968 C136.962532,64.1271052 136.25616,66.1126325 135.629186,67.8948029 C135.409649,68.5188362 135.215684,69.0729743 135.049197,69.550871 C134.949142,69.8380772 134.88038,70.0363387 134.844817,70.1393079 L136.374289,69.0494246 L129.449838,69.0494246 L131.053767,70.4536904 C130.593756,67.0036112 129.001675,62.875993 126.478567,58.1787175 C125.081207,55.5772495 123.422073,52.8484551 121.555319,50.037213 C119.483473,46.9171112 117.266343,43.8579997 115.049224,40.9854236 C114.273063,39.9798027 113.551942,39.0688254 112.904084,38.2683688 C112.676683,37.9874049 112.474466,37.7400701 112.299712,37.5283542 C112.193817,37.400062 112.119962,37.311388 112.080429,37.2643241 L111.530514,39.7691498 Z" id="Path-8"></path>
                        <path d="M119.495954,47.7535812 C119.372857,47.567555 119.2483,47.3796719 119.122343,47.1900117 C117.866912,45.2996445 116.522617,43.3078024 115.178429,41.33767 C114.70804,40.6482362 114.271215,40.0106896 113.879107,39.4404817 C113.74179,39.2407921 113.619841,39.063742 113.514658,38.9112643 C113.407902,38.7565972 113.407902,38.7565972 113.384986,38.7234698 L111.512993,36.0172694 L110.512682,39.1521152 C110.499394,39.193771 110.475911,39.2681226 110.441599,39.3779385 C110.384998,39.5590935 110.319509,39.7711046 110.245871,40.0123975 C110.036129,40.6996674 109.802694,41.4851016 109.55148,42.3561223 C108.834324,44.8426787 108.117352,47.5198183 107.447878,50.2874252 C106.645341,53.6051115 105.965881,56.8300193 105.448617,59.8812232 C104.749031,64.0078975 104.368932,67.6810658 104.368932,70.7936704 L104.368932,72.4117933 L105.987055,72.4117933 L129.652104,72.4117933 L132.073611,72.4117933 L131.147098,70.1745469 C131.131957,70.1379897 131.131957,70.1379897 131.062729,69.9718935 C130.994547,69.8085873 130.915201,69.6193857 130.825472,69.406439 C130.56945,68.7988441 130.281296,68.1221469 129.967247,67.393528 C129.069581,65.3108743 128.14359,63.2278045 127.238593,61.2807305 C126.939577,60.6374081 126.647146,60.0183634 126.362328,59.42649 C125.468608,57.5692672 124.666203,56.0127069 123.972997,54.8132855 C123.043069,53.204275 121.500739,50.7832253 119.495954,47.7535812 Z M123.44616,60.8297897 C123.724463,61.4081251 124.010746,62.0141538 124.303864,62.6447889 C125.194627,64.5612383 126.108771,66.6176578 126.995309,68.6744935 C127.305731,69.3946959 127.590452,70.0633328 127.843171,70.6630889 C127.994457,71.0221248 128.101199,71.2777886 128.157109,71.4127939 L129.652104,69.1755474 L105.987055,69.1755474 L107.605178,70.7936704 C107.605178,67.8869001 107.967603,64.384521 108.639337,60.4221393 C109.143066,57.4507786 109.807414,54.2975991 110.593403,51.0483164 C111.251123,48.3293022 111.956144,45.6967906 112.660981,43.2529434 C112.907465,42.3983228 113.136177,41.6287817 113.341184,40.9570272 C113.463564,40.5560189 113.550403,40.2780847 113.59577,40.1359106 L110.723466,40.564556 C110.74524,40.596032 110.74524,40.596032 110.850756,40.7489026 C110.955051,40.9000927 111.076098,41.0758348 111.2125,41.2741917 C111.602448,41.8412597 112.037056,42.4755697 112.505133,43.161615 C113.842277,45.1214227 115.179314,47.1025123 116.42646,48.9804028 C116.551433,49.1685816 116.674997,49.3549679 116.797093,49.5394798 C118.767819,52.5176534 120.282853,54.8958572 121.171054,56.4326692 C121.816716,57.5498275 122.584764,59.0397413 123.44616,60.8297897 Z" id="Path-9"></path>
                        <path d="M151.274688,68.4491274 C151.141493,67.9247707 150.989074,67.3411167 150.819766,66.7128141 C150.335596,64.9160596 149.81233,63.1185401 149.267797,61.4355872 C148.553445,59.2277869 147.855615,57.3820935 147.180667,55.9984498 C146.51156,54.6267807 145.873786,53.6974529 145.102887,53.1835199 C145.456436,53.4192191 145.752071,53.9189974 145.592938,54.5910343 C145.52533,54.8765479 145.389047,55.0882221 145.229903,55.2386647 C145.161885,55.3029635 145.112619,55.3360631 145.079781,55.3529314 C145.249639,55.2656779 145.774405,55.1469096 146.498932,55.0790609 C148.509757,54.8907563 151.298808,55.1102434 154.309524,55.8033579 C162.736192,57.7433104 171.119368,62.7607965 178.148246,71.3325975 L179.399488,68.6884557 L152.29291,68.6884557 L152.805179,68.7716837 L150.381013,67.9626222 L151.441317,69.1162873 C151.411321,68.9925538 151.354992,68.7652667 151.274688,68.4491274 Z M149.356475,71.0324122 L151.780641,71.8414737 C151.945807,71.8965976 152.118788,71.9247016 152.29291,71.9247016 L179.399488,71.9247016 C180.765402,71.9247016 181.516829,70.3367767 180.650731,69.2805598 C173.155969,60.1406075 164.143278,54.7463458 155.035568,52.6496064 C151.69993,51.8816897 148.566129,51.6350723 146.197193,51.8569124 C145.097877,51.9598582 144.212304,52.1602869 143.60106,52.4742734 C142.239957,53.1734504 141.832795,54.892942 143.307741,55.8762393 C143.459171,55.9771931 143.840815,56.5333022 144.272031,57.4172965 C144.867453,58.6379106 145.517168,60.3563448 146.188714,62.4318495 C146.714888,64.0580586 147.223742,65.8060697 147.694982,67.554846 C147.860068,68.1674791 148.008568,68.7361226 148.138053,69.245879 C148.215357,69.5502075 148.268866,69.7661118 148.296171,69.878747 C148.427431,70.4201936 148.828002,70.8560349 149.356475,71.0324122 Z" id="Path-10"></path>
                        <path d="M158.615182,70.486943 C158.702141,70.1996131 158.808718,69.8641439 158.935422,69.4845874 C159.300126,68.3920782 159.751548,67.1713526 160.293631,65.8548803 C161.843468,62.0910317 163.803931,58.3273844 166.202441,54.8237764 C171.721393,46.7620044 178.676884,41.3193222 187.210544,39.6125901 L185.351253,37.5352692 C185.335507,37.58476 185.30598,37.6779739 185.263023,37.8142387 C185.191679,38.0405459 185.108993,38.3041665 185.015908,38.6025492 C184.750216,39.4542159 184.454271,40.4142637 184.135619,41.4622977 C183.225187,44.4566743 182.314727,47.5575595 181.464496,50.6023785 C181.136526,51.7768938 180.82331,52.9227845 180.526892,54.0345653 C178.336225,62.2511369 177.236943,67.819212 177.607813,70.229866 L179.20712,68.3656958 L168.28479,68.3656958 L156.900176,68.7712575 L158.517987,70.8179308 C158.532157,70.7664721 158.564383,70.6547935 158.615182,70.486943 Z M157.015682,72.0054415 L168.342543,71.6009108 L179.20712,71.6019417 C180.198844,71.6019417 180.957225,70.7179634 180.806427,69.7377715 C180.536863,67.9856096 181.621851,62.489936 183.653906,54.8682763 C183.946943,53.769175 184.256833,52.6354538 184.5815,51.4727658 C185.424485,48.4538959 186.328183,45.3760384 187.23191,42.4037168 C187.548214,41.3634064 187.84187,40.4107829 188.105309,39.5663386 C188.197419,39.2710823 188.27914,39.0105369 188.349528,38.7872618 C188.391609,38.6537772 188.420665,38.5620473 188.435155,38.5165108 C188.808888,37.3419225 187.78454,36.1974546 186.575864,36.4391898 C177.107668,38.332829 169.488347,44.2949593 163.532008,52.9956431 C160.995082,56.70144 158.931967,60.6621551 157.30115,64.6226689 C156.730003,66.0097234 156.253078,67.2994156 155.8657,68.4598455 C155.630658,69.1639402 155.47622,69.6742374 155.397871,69.9587682 C155.107785,71.0122375 155.923699,72.0444409 157.015682,72.0054415 Z" id="Path-11"></path>
                        <path d="M181.229773,68.7702265 L178.467465,69.9144123 L188.80083,80.2477778 L189.945016,77.4854691 L179.611651,77.4854688 L181.229773,79.1035918 L181.229773,68.7702265 Z M179.61165,80.7217147 L189.945016,80.721715 C191.38661,80.7217151 192.108562,78.978767 191.089202,77.9594063 L180.755836,67.6260408 C179.736476,66.6066802 177.993528,67.3286329 177.993528,68.7702265 L177.993528,79.1035918 C177.993528,79.9972564 178.717986,80.7217147 179.61165,80.7217147 Z" id="Path-12"></path>
                        <path d="M63.9158576,90.6148867 C63.9158576,83.0187373 57.7579618,76.8608414 50.1618123,76.8608414 C42.5656628,76.8608414 36.407767,83.0187373 36.407767,90.6148867 C36.407767,98.2110362 42.5656628,104.368932 50.1618123,104.368932 C57.7579618,104.368932 63.9158576,98.2110362 63.9158576,90.6148867 Z M39.6440129,90.6148867 C39.6440129,84.8060665 44.3529921,80.0970874 50.1618123,80.0970874 C55.9706325,80.0970874 60.6796117,84.8060665 60.6796117,90.6148867 C60.6796117,96.4237069 55.9706325,101.132686 50.1618123,101.132686 C44.3529921,101.132686 39.6440129,96.4237069 39.6440129,90.6148867 Z" id="Oval-4"></path>
                        <path d="M57.4433657,90.6148867 C57.4433657,86.5933958 54.1833032,83.3333333 50.1618123,83.3333333 C46.1403214,83.3333333 42.8802589,86.5933958 42.8802589,90.6148867 C42.8802589,94.6363776 46.1403214,97.8964401 50.1618123,97.8964401 C54.1833032,97.8964401 57.4433657,94.6363776 57.4433657,90.6148867 Z M46.1165049,90.6148867 C46.1165049,88.3807251 47.9276507,86.5695793 50.1618123,86.5695793 C52.3959739,86.5695793 54.2071197,88.3807251 54.2071197,90.6148867 C54.2071197,92.8490483 52.3959739,94.6601942 50.1618123,94.6601942 C47.9276507,94.6601942 46.1165049,92.8490483 46.1165049,90.6148867 Z" id="Oval-4-Copy-2"></path>
                        <path d="M161.003236,90.6148867 C161.003236,83.0187373 154.84534,76.8608414 147.249191,76.8608414 C139.653041,76.8608414 133.495146,83.0187373 133.495146,90.6148867 C133.495146,98.2110362 139.653041,104.368932 147.249191,104.368932 C154.84534,104.368932 161.003236,98.2110362 161.003236,90.6148867 Z M136.731392,90.6148867 C136.731392,84.8060665 141.440371,80.0970874 147.249191,80.0970874 C153.058011,80.0970874 157.76699,84.8060665 157.76699,90.6148867 C157.76699,96.4237069 153.058011,101.132686 147.249191,101.132686 C141.440371,101.132686 136.731392,96.4237069 136.731392,90.6148867 Z" id="Oval-4-Copy"></path>
                        <path d="M154.530744,90.6148867 C154.530744,86.5933958 151.270682,83.3333333 147.249191,83.3333333 C143.2277,83.3333333 139.967638,86.5933958 139.967638,90.6148867 C139.967638,94.6363776 143.2277,97.8964401 147.249191,97.8964401 C151.270682,97.8964401 154.530744,94.6363776 154.530744,90.6148867 Z M143.203883,90.6148867 C143.203883,88.3807251 145.015029,86.5695793 147.249191,86.5695793 C149.483353,86.5695793 151.294498,88.3807251 151.294498,90.6148867 C151.294498,92.8490483 149.483353,94.6601942 147.249191,94.6601942 C145.015029,94.6601942 143.203883,92.8490483 143.203883,90.6148867 Z" id="Oval-4-Copy-3"></path>
                        <path d="M99.9190939,80.0970874 C100.812758,80.0970874 101.537217,79.372629 101.537217,78.4789644 C101.537217,77.5852998 100.812758,76.8608414 99.9190939,76.8608414 L72.4110032,76.8608414 C71.5173386,76.8608414 70.7928803,77.5852998 70.7928803,78.4789644 C70.7928803,79.372629 71.5173386,80.0970874 72.4110032,80.0970874 L99.9190939,80.0970874 Z" id="Line"></path>
                        <path d="M58.6569579,104.368932 C59.5506226,104.368932 60.2750809,103.644474 60.2750809,102.750809 C60.2750809,101.857144 59.5506226,101.132686 58.6569579,101.132686 L23.0582524,101.132686 C22.1645878,101.132686 21.4401294,101.857144 21.4401294,102.750809 C21.4401294,103.644474 22.1645878,104.368932 23.0582524,104.368932 L58.6569579,104.368932 Z" id="Line-Copy-3"></path>
                        <path d="M13.3495146,104.368932 C14.2431792,104.368932 14.9676375,103.644474 14.9676375,102.750809 C14.9676375,101.857144 14.2431792,101.132686 13.3495146,101.132686 L2.02265372,101.132686 C1.12898908,101.132686 0.404530744,101.857144 0.404530744,102.750809 C0.404530744,103.644474 1.12898908,104.368932 2.02265372,104.368932 L13.3495146,104.368932 Z" id="Line-Copy-4"></path>
                        <path d="M147.653722,104.368932 C148.547386,104.368932 149.271845,103.644474 149.271845,102.750809 C149.271845,101.857144 148.547386,101.132686 147.653722,101.132686 L112.055016,101.132686 C111.161352,101.132686 110.436893,101.857144 110.436893,102.750809 C110.436893,103.644474 111.161352,104.368932 112.055016,104.368932 L147.653722,104.368932 Z" id="Line-Copy-6"></path>
                        <path d="M102.346278,104.368932 C103.239943,104.368932 103.964401,103.644474 103.964401,102.750809 C103.964401,101.857144 103.239943,101.132686 102.346278,101.132686 L91.0194175,101.132686 C90.1257528,101.132686 89.4012945,101.857144 89.4012945,102.750809 C89.4012945,103.644474 90.1257528,104.368932 91.0194175,104.368932 L102.346278,104.368932 Z" id="Line-Copy-5"></path>
                        <path d="M120.550162,80.0970874 C121.443826,80.0970874 122.168285,79.372629 122.168285,78.4789644 C122.168285,77.5852998 121.443826,76.8608414 120.550162,76.8608414 L109.223301,76.8608414 C108.329636,76.8608414 107.605178,77.5852998 107.605178,78.4789644 C107.605178,79.372629 108.329636,80.0970874 109.223301,80.0970874 L120.550162,80.0970874 Z" id="Line-Copy"></path>
                        <path d="M33.9805825,72.0064725 C34.8742472,72.0064725 35.5987055,71.2820142 35.5987055,70.3883495 C35.5987055,69.4946849 34.8742472,68.7702265 33.9805825,68.7702265 L22.6537217,68.7702265 C21.760057,68.7702265 21.0355987,69.4946849 21.0355987,70.3883495 C21.0355987,71.2820142 21.760057,72.0064725 22.6537217,72.0064725 L33.9805825,72.0064725 Z" id="Line-Copy-2"></path>
                        <path d="M63.7077848,29.526285 C63.5249101,29.4775351 63.3112915,29.4210792 63.0687264,29.3575586 C62.377054,29.17643 61.5912259,28.974752 60.7256078,28.7576517 C58.2532965,28.1375865 55.6349385,27.5175746 52.9849547,26.9385865 C50.9238362,26.4882581 48.9248119,26.0809386 47.0161163,25.7268712 C41.9846882,24.7935298 37.8248514,24.2718447 34.789644,24.2718447 C33.6821812,24.2718447 32.9019914,25.359342 33.2568268,26.4084205 C33.2752497,26.462888 33.3114701,26.5705471 33.3643004,26.7284662 C33.4526842,26.9926611 33.5553046,27.301261 33.6709738,27.6513337 C34.0018123,28.6526167 34.3706091,29.7846628 34.7678559,31.0239959 C35.9029074,34.5651372 37.0379453,38.2545039 38.0967791,41.903644 C38.6008676,43.6409232 39.0762278,45.3305346 39.5180714,46.9605618 C41.5363459,54.4062781 42.7464083,60.1974113 42.8815518,63.5760001 C42.9004397,64.0481953 43.124807,64.4885367 43.4957212,64.7813637 L51.1818054,70.8493249 C52.0288552,71.5180484 53.2807347,71.1858999 53.6848573,70.1852153 C53.70101,70.1452183 53.7339671,70.0644273 53.7829686,69.9455744 C53.865494,69.7454099 53.9625513,69.5126275 54.0733788,69.2499623 C54.3909219,68.4973738 54.7544671,67.657905 55.1578856,66.7534852 C56.3098357,64.1709404 57.5485947,61.5892092 58.8235901,59.1856645 C60.2936797,56.4143397 61.7155272,54.0657704 63.0401287,52.2838661 C64.546416,50.257551 65.8544667,49.0896486 66.6820859,48.9123016 C67.530441,48.7305113 68.0844461,47.9119805 67.9379233,47.0568283 L66.3198003,37.6129629 L65.1038208,30.8620136 C64.9930014,30.2467897 64.5377164,29.7504297 63.9343292,29.5870123 C63.8934057,29.5759309 63.8182478,29.5557317 63.7077848,29.526285 Z M61.9188329,31.4357211 L63.1324252,38.1730855 L64.7481608,47.6033659 L66.0039982,45.7478925 C64.1768845,46.1394169 62.3877466,47.7368615 60.442881,50.3531687 C59.00592,52.2862235 57.5049749,54.765444 55.9646806,57.6691143 C54.6515628,60.1445252 53.3821002,62.7902465 52.202333,65.4351542 C51.7896505,66.3603427 51.4174507,67.219796 51.0916813,67.9918812 C50.9773495,68.2628518 50.8768844,68.5038073 50.7910338,68.7120374 C50.7390097,68.8382214 50.7031069,68.9262335 50.6840747,68.9733608 L53.1871267,68.3092512 L45.5010425,62.24129 L46.1152119,63.4466537 C45.967289,59.748581 44.7219402,53.7885738 42.6415986,46.1138824 C42.1945477,44.4646447 41.7140485,42.7567675 41.2048311,41.0018123 C40.1369069,37.3213431 38.9932756,33.6040441 37.8496578,30.0361777 C37.4493703,28.787358 37.0775997,27.6461839 36.7438263,26.6360184 C36.6268813,26.2820842 36.5229974,25.9696848 36.4333601,25.7017429 C36.3793777,25.54038 36.3420162,25.4293295 36.3224612,25.3715148 L34.789644,27.5080906 C37.5815696,27.5080906 41.5736459,28.0087369 46.4258551,28.9088328 C48.2989032,29.2562875 50.2648391,29.6568649 52.2941715,30.1002485 C54.9094081,30.6716447 57.4962231,31.2841874 59.9383282,31.8966768 C60.7927559,32.1109706 61.5677686,32.3098728 62.2488935,32.4882393 C62.656249,32.5949137 62.9408774,32.6707887 63.0883245,32.7107223 L61.9188329,31.4357211 Z" id="Path-13"></path>
                        <polygon id="Path-14" points="68.472025 66.3153272 69.0684281 63.134511 56.1234442 60.7073266 55.5270412 63.8881427"></polygon>
                        <polygon id="Path-14-Copy" points="105.734688 63.0869951 106.239422 59.8903512 90.8672534 57.4631667 90.3625201 60.6598106"></polygon>
                        <polygon id="Path-14-Copy-2" points="105.612265 59.9145531 106.361846 63.0627932 123.352137 59.0174858 122.602556 55.8692456"></polygon>
                        <path d="M37.9650135,37.1554342 C37.6008078,37.0698586 37.176773,36.9748845 36.6965345,36.872887 C35.3308555,36.5828313 33.7842092,36.2932875 32.0855098,36.0232955 C27.2344052,35.252259 22.1263643,34.789644 16.9902913,34.789644 C15.8733105,34.789644 15.0922498,35.8945356 15.4648507,36.9475383 L24.7690578,63.2420367 C24.9977522,63.8883467 25.6089199,64.3203883 26.2944984,64.3203883 L32.3624595,64.3203883 C33.0129164,64.3203883 33.6001451,63.930903 33.8531546,63.33167 L41.5392388,45.1277865 C41.6968392,44.7545224 41.7086719,44.3357153 41.5723979,43.9541482 L39.5497442,38.2907178 C39.3687417,37.7839109 38.9476183,37.400255 38.4261865,37.2671234 C38.3420175,37.2456335 38.187083,37.2076127 37.9650135,37.1554342 Z M36.5020357,39.3791851 L38.5246895,45.0426155 L38.5578486,43.8689773 L30.8717645,62.0728608 L32.3624595,61.0841424 L26.2944984,61.0841424 L27.819939,62.1624941 L18.5157318,35.8679957 L16.9902913,38.02589 C21.9422037,38.02589 26.8842234,38.4734691 31.5775161,39.2194229 C33.2193557,39.4803776 34.7114306,39.7597051 36.0241875,40.0385208 C36.4814017,40.1356282 36.882823,40.2255374 37.2247683,40.3058826 C37.4263895,40.3532565 37.5612238,40.3863447 37.6255935,40.4027795 L36.5020357,39.3791851 Z" id="Path-15"></path>
                    </g>
                </g>
                <text id="SydPark" font-family="SourceSansPro-Regular, Source Sans Pro" font-size="32" font-weight="normal" fill="#F2F2F2">
                    <tspan x="41.636" y="149">SydPark</tspan>
                </text>
            </g>
        </g>
    </g>
</svg>